<mxfile host="app.diagrams.net" modified="2023-08-15T09:37:14.820Z" agent="Mozilla/5.0 (Macintosh; Intel Mac OS X 10_15_7) AppleWebKit/537.36 (KHTML, like Gecko) Chrome/113.0.0.0 Safari/537.36" version="21.6.8" etag="M4SQxRI5-VnuJZhhkuO4" type="github">
  <diagram name="Page-1" id="MHa0uThEBmlEJx8IqHHs">
    <mxGraphModel>
      <root>
        <mxCell id="0" />
        <mxCell id="1" parent="0" />
      </root>
    </mxGraphModel>
  </diagram>
</mxfile>
